<svg xmlns="http://www.w3.org/2000/svg" viewBox="0 0 249.56 202.79"><defs><style>.cls-1{fill:#e73e8e;}.cls-2{fill:#dbdb00;}</style></defs><title>Ресурс 22</title><g id="Слой_2" data-name="Слой 2"><g id="Слой_3" data-name="Слой 3"><path class="cls-1" d="M128.59,146.11a73.76,73.76,0,0,0-17.75-33A72.33,72.33,0,0,0,81.19,94.28c4.34-.58,15.62-2.73,23.25-12.18,10.88-13.45,6.07-31.38,4.35-37.56a51.82,51.82,0,0,0-19.6-28.39C72.87,4.3,49.53,1.66,31,9.5,7.5,19.41,6.27,44.07,4.09,66.1,2.44,82.75.41,96.65.07,124.32-.18,143.7.3,159.77.79,171a80.24,80.24,0,0,0,4,16.83c4.13,11.1,16.68,19.95,27.86,11.88,9.46-6.84,9.27-21.06,11-31.61q3.24-19.28,6.47-38.55,9,20.75,17.94,41.51c6,14,13.2,21.16,23.8,25.21,8.2,3.14,21.45,4.48,30.53-2.7C137.22,181.8,130.83,155.38,128.59,146.11Z"/><path class="cls-1" d="M249.33,142.84c-2-19.72-14-32.92-29.71-42C237.69,80.7,248.46,53.72,245.85,27c-1.13-11.56-7-21.35-19-24.89-3.22-1-13-3.94-28.74-.34C190.28,3.51,168.31,8.51,154,25.8c-9.58,11.56-5.3,16-13,89.1-.91,8.59-.4,22.26,0,40.48.25,11.35,2.08,22.85,9.46,32,15.34,19,46.41,18.48,67,9.14S251.52,165.08,249.33,142.84Z"/><path class="cls-2" d="M71.93,47.42a4.37,4.37,0,0,0-.62-2.05,7.52,7.52,0,0,0-.67-2,17.09,17.09,0,0,0-2.23-3.53,22.09,22.09,0,0,0-3.29-3.12,11.71,11.71,0,0,0-5.64-2.39A11.93,11.93,0,0,0,53.23,34a11.8,11.8,0,0,0-5.57,2.32,11.81,11.81,0,0,0-4.42,4l-1.91,3.59a15.75,15.75,0,0,0-.76,8.3l1.23,3.87a15.82,15.82,0,0,0,4.51,5.64l1.23,1.13,3.56,1.91,4.08.93,4.17-.18a11.68,11.68,0,0,0,5.53-2.3,7.7,7.7,0,0,0,3-2.53,7.8,7.8,0,0,0,2.31-3.24,7.84,7.84,0,0,0,1.42-3.82A11.78,11.78,0,0,0,71.93,47.42Z"/><path class="cls-2" d="M216.3,40.09c0-.07-.06-.14-.08-.21-.53-1.22-1.06-2.44-1.58-3.66l-.09-.16L212.1,33a11.86,11.86,0,0,0-5-3.16,7.76,7.76,0,0,0-3.12-1,13.68,13.68,0,0,0-3.37-.32,12.18,12.18,0,0,0-2.61.27c-.52.08-1.06.17-1.62.28a15.22,15.22,0,0,0-6.7,3.81,14.7,14.7,0,0,0-3.9,6.53,14.52,14.52,0,0,0-.45,5.31,11.55,11.55,0,0,0,.51,4.68,11.49,11.49,0,0,0,2.82,5.22,11.91,11.91,0,0,0,4.42,4l3.76,1.55a16.31,16.31,0,0,0,8.38,0l3.76-1.55A15.63,15.63,0,0,0,214.58,53a16.74,16.74,0,0,0,2.33-8.5A16,16,0,0,0,216.3,40.09Z"/><path class="cls-2" d="M217.3,143.37a11.52,11.52,0,0,0-3.25-5l-3.19-2.4a16,16,0,0,0-8-2.1l-4.19.55a15.88,15.88,0,0,0-6.95,3.95l-.84,1c-1.78,2.1-3.45,4.13-4.1,6.9-.18,1.34-.37,2.69-.56,4,.17,1.38.36,2.76.58,4.14a15,15,0,0,0,4,6.62,15.47,15.47,0,0,0,6.79,3.86c.73.11,1.45.21,2.18.29A12.1,12.1,0,0,0,206,165c3.19-.86,4.59-2,7.08-4l1-.81a11.46,11.46,0,0,0,3.25-4.95,13.56,13.56,0,0,0,0-11.84Z"/></g></g></svg>